<?xml version="1.0" encoding="UTF-8"?>
<svg xmlns="http://www.w3.org/2000/svg" id="Layer_1" data-name="Layer 1" viewBox="0 0 150 150">
  <defs>
    <style>
      .cls-1 {
        fill: none;
        stroke: #564a41;
        stroke-miterlimit: 10;
      }

      .cls-2 {
        fill: #564a41;
        stroke-width: 0px;
      }
    </style>
  </defs>
  <circle class="cls-1" cx="75" cy="75" r="75"></circle>
  <g id="_3ln6Na.tif" data-name="3ln6Na.tif">
    <g>
      <path class="cls-2" d="M27.58,37.47c.27-.94.29-1.94.67-2.86.73-1.81,1.64-2.45,3.59-2.45,7.66,0,15.32,0,22.98,0,.32,0,.64-.03.95.02.61.09.94.49.91,1.1-.02.56-.34.92-.91,1-.31.04-.63.02-.95.02-6.6,0-13.2,0-19.81,0-.39,0-.77,0-1.28,0,.64,1.93.84,3.83.42,5.76-.33,1.54-.32,1.54,1.23,1.54,6.92,0,13.84,0,20.76,0,.32,0,.64,0,.95,0,.68.01,1.2.26,1.23,1.01.03.8-.49,1.14-1.22,1.15-1.77.02-3.53,0-5.3,0-6.71,0-13.42-.04-20.12.03-1.68.02-2.61-.78-3.3-2.14-.5-.99-.54-2.1-.83-3.15v-1.06ZM29.87,37.85c-.03,1.15.11,2.26.69,3.27.29.52.59.52.93.01.94-1.36.94-4.93,0-6.33-.33-.5-.62-.53-.92,0-.55.94-.72,1.98-.71,3.05Z"></path>
      <path class="cls-2" d="M76.3,29.75c4.66,0,9.32,0,13.98,0,2.71,0,4.18,1.12,4.94,3.7,1.54,5.2,1.32,10.46.49,15.73-.87,5.54-2.37,10.96-3.16,16.52-.67,4.76-.68,9.49.72,14.15.75,2.49-.3,3.8-2.91,3.8-9.39,0-18.78,0-28.18,0-2.54,0-4.05-1.16-4.8-3.62-1.49-4.87-1.37-9.81-.67-14.78.71-5.1,2.04-10.09,2.94-15.16,1-5.65,1.31-11.26-.43-16.86-.66-2.12.51-3.49,2.77-3.5,4.77-.01,9.53,0,14.3,0ZM76.44,31.92c-4.59,0-9.18,0-13.77,0-1.58,0-1.59,0-1.16,1.48.92,3.11,1.21,6.29,1.12,9.52-.15,5.4-1.42,10.62-2.52,15.86-.94,4.46-1.77,8.93-1.72,13.51.02,1.53.52,1.83,1.97,1.21.68-.29,1.32-.68,1.98-1,1.24-.6,2.53-.82,3.91-.58,1.12.19,2.2.5,3.28.84,1.86.59,3.61.48,5.27-.6.24-.15.5-.26.75-.4,2.01-1.14,4.02-1.15,6.05-.05.81.44,1.63.84,2.45,1.25,1,.5,1.96.46,2.91-.15.71-.46,1.42-.95,2.28-1.08.58-.09.69-.39.71-.93.06-2.37.28-4.72.72-7.05.96-5.06,2.05-10.09,2.93-15.16.85-4.91.98-9.83-.49-14.68-.45-1.5-1.12-2-2.68-2.01-4.66,0-9.32,0-13.98,0ZM76.14,81.51c4.59,0,9.18,0,13.77,0,1.6,0,1.61,0,1.14-1.59-.46-1.56-.77-3.15-.94-4.77-.16-1.51-.27-1.64-1.48-.79-2.19,1.54-4.4,1.49-6.52.06-2.37-1.6-4.58-1.62-6.95-.04-1.64,1.09-3.51,1.18-5.41.66-.99-.27-1.98-.5-2.96-.78-1.47-.42-2.85-.27-4.17.54-1,.61-2.05,1.15-3.26,1.13-.66-.01-.69.27-.56.76.23.92.41,1.86.68,2.77.44,1.52,1.18,2.04,2.78,2.05,4.63,0,9.25,0,13.88,0Z"></path>
      <path class="cls-2" d="M75.17,112.63c-6.15,0-12.29,0-18.44,0-4.21,0-6.75-2.01-7.71-6.09-1.19-5.05-2.38-10.09-3.56-15.14-.14-.61-.37-1.26.23-1.77.57-.48,1.12-.14,1.69.04,3.27,1.04,6.53,1.05,9.75-.2,4.14-1.6,8.25-1.58,12.39,0,3.4,1.3,6.84,1.3,10.24,0,4.1-1.58,8.19-1.61,12.29-.03,3.29,1.27,6.62,1.28,9.95.18,1.54-.51,2.18-.05,1.91,1.58-.87,5.25-1.72,10.51-2.72,15.74-.68,3.56-3.5,5.68-7.26,5.69-6.25.02-12.5,0-18.75,0ZM75.11,110.44c6.28,0,12.57.01,18.85,0,2.94-.01,4.75-1.61,5.23-4.49.72-4.28,1.43-8.56,2.21-12.82.16-.89.08-1.08-.87-.89-3.22.64-6.37.4-9.45-.82-3.39-1.33-6.84-1.33-10.23-.03-4.18,1.6-8.3,1.61-12.48,0-3.32-1.28-6.72-1.32-10.03-.03-3.12,1.22-6.29,1.51-9.55.91-.74-.14-.93-.11-.73.72,1.05,4.31,2.05,8.64,3.06,12.97.75,3.22,2.34,4.5,5.67,4.5,6.11,0,12.22,0,18.32,0Z"></path>
      <path class="cls-2" d="M75.27,120.21c-7.91,0-15.82-.11-23.73.04-5.17.1-9.11-3.07-10.15-8.14-2.15-10.46-4.49-20.89-6.75-31.33-.02-.1-.04-.21-.06-.31-.14-.73-.06-1.42.78-1.59.83-.17,1.18.4,1.34,1.14.48,2.28.98,4.55,1.48,6.82,1.84,8.51,3.67,17.02,5.53,25.53.74,3.37,3.43,5.63,6.87,5.64,16.49.03,32.98.03,49.47,0,3.47,0,6.18-2.24,6.82-5.65,1.45-7.84,2.81-15.69,4.21-23.53.51-2.88,1.01-5.76,1.52-8.65.13-.75.41-1.46,1.32-1.3.88.15.98.82.83,1.64-1.89,10.62-3.74,21.26-5.65,31.87-.88,4.87-4.47,7.8-9.47,7.81-8.12.02-16.24,0-24.36,0Z"></path>
      <path class="cls-2" d="M108.39,34.31c-3.11,0-6.21,0-9.32,0-.25,0-.49,0-.74,0-.75,0-1.25-.31-1.23-1.11.02-.74.51-1.03,1.21-1.03,6.96,0,13.91,0,20.87,0,.93,0,1.58.52,2.1,1.25,1.55,2.2,1.53,6.91-.02,9.09-.6.84-1.38,1.27-2.42,1.27-6.46,0-12.92,0-19.39,0-.8,0-1.47-.22-1.46-1.13.01-.86.68-1.06,1.42-1.04.25,0,.49,0,.74,0,5.19,0,10.38,0,15.57,0,.92,0,1.84-.03,2.75.01.63.03,1.01-.24,1.23-.79.75-1.89.75-3.78.03-5.68-.24-.64-.68-.88-1.39-.87-3.32.04-6.64.02-9.96.02Z"></path>
      <path class="cls-2" d="M70.91,45.8c0-1.49-.16-2.96-.6-4.39-.22-.71-.13-1.31.61-1.56.8-.27,1.24.18,1.47.94.96,3.19.76,6.41.22,9.64-.59,3.51-1.62,6.94-1.84,10.51-.12,1.89-.01,3.74.53,5.55.23.77.09,1.37-.71,1.6-.77.22-1.16-.3-1.37-.98-.99-3.23-.78-6.48-.21-9.74.52-2.98,1.34-5.91,1.69-8.93.1-.87.14-1.76.21-2.63Z"></path>
      <path class="cls-2" d="M85.45,45.79c-.03,3.45-.89,6.76-1.57,10.11-.73,3.58-1.28,7.15-.17,10.76.2.65-.02,1.25-.73,1.41-.75.17-1.17-.26-1.38-.96-.93-3.05-.78-6.12-.3-9.21.54-3.44,1.53-6.8,1.87-10.29.2-2.06.11-4.08-.46-6.07-.21-.73-.26-1.48.67-1.71.9-.23,1.23.4,1.44,1.16.43,1.57.66,3.17.62,4.8Z"></path>
      <path class="cls-2" d="M60.72,99.28c-.6,0-1.2.05-1.79-.01-.63-.06-1.04-.46-1.01-1.13.03-.6.42-.98,1.02-1,1.16-.03,2.31-.04,3.47,0,.59.02.98.38,1,1.01.02.68-.39,1.05-1.02,1.11-.55.06-1.12.01-1.68.01Z"></path>
      <path class="cls-2" d="M83.79,101.48c-.6,0-1.19.04-1.79,0-.61-.05-.97-.45-.97-1.04,0-.6.36-1.03.96-1.05,1.19-.05,2.38-.05,3.57,0,.6.02.95.42.95,1.04,0,.62-.33,1-.94,1.05-.59.05-1.19.01-1.79.01Z"></path>
      <path class="cls-2" d="M70.49,103.76c.56,0,1.12-.02,1.68,0,.67.02,1.04.41,1.05,1.06,0,.61-.37,1.03-.96,1.05-1.19.05-2.38.05-3.57,0-.6-.03-.97-.46-.95-1.06.01-.65.4-1.03,1.07-1.05.56-.02,1.12,0,1.68,0Z"></path>
    </g>
  </g>
</svg>
