<?xml version="1.0" encoding="UTF-8"?>
<svg xmlns="http://www.w3.org/2000/svg" id="Layer_1" data-name="Layer 1" viewBox="0 0 150 150">
  <defs>
    <style>
      .cls-1 {
        fill: none;
        stroke: #564a41;
        stroke-miterlimit: 10;
      }

      .cls-2 {
        fill: #564a41;
        stroke-width: 0px;
      }
    </style>
  </defs>
  <circle class="cls-1" cx="75" cy="75" r="75"></circle>
  <g id="MKhaxc.tif">
    <path class="cls-2" d="M23.5,81.49c.2-1.59.39-3.18.62-4.77.17-1.16.78-1.64,1.79-1.47.92.16,1.33.84,1.18,1.94-1.98,14.4,2.39,26.59,13.15,36.29,8.1,7.3,17.85,10.72,28.72,9.84,17.4-1.41,29.42-10.5,35.49-26.86,5.99-16.14.12-34.77-13.69-45.07-.6-.45-.95-.48-1.53.03-1.09.96-2.27,1.82-3.45,2.76,1.06.81,2.12,1.54,3.08,2.38,10.8,9.49,14.99,21.38,11.54,35.31-3.4,13.72-12.6,22.14-26.29,25.59-3.53.89-7.15.97-10.77.69-1.36-.11-2.03-.8-1.8-1.84.24-1.06.98-1.26,1.96-1.18,4.36.35,8.66.06,12.81-1.4,12.49-4.4,19.86-13.12,21.91-26.24.57-3.63.36-7.27-.48-10.97-2.36,1.32-4.61,2.61-6.37,4.59-1.93,2.16-1.7,4.74-1.45,7.32.18,1.87.88,3.73.35,5.63-1.45,5.19-4.72,8.77-9.85,10.43-2.87.93-5.26-.47-6.27-3.33-.64-1.81-.77-3.7-.84-5.6-.13-3.64.13-7.3-.21-10.94-.29-3.16-.52-3.37-3.62-2.89-2.4.37-4.8.82-7.25.65-5.34-.35-9.05-4.9-8.39-10.24.43-3.44,2.27-6.02,4.78-8.24.19-.17.38-.33.56-.5.02-.02.01-.07.03-.17-1-.18-2.01-.33-3.01-.56-3.13-.72-6.03-1.99-8.7-3.77-.54-.36-.87-.34-1.37.08-3.64,3.12-6.48,6.83-8.52,11.17-.28.59-.26.99.14,1.53,1.39,1.92,2.37,4.08,3.49,6.15.74,1.37,1.71,2.3,3.28,2.65.93.21,1.84.59,2.7,1.02,2.1,1.04,2.92,2.9,2.34,5.18-.46,1.81-1.29,3.48-2.1,5.15-.63,1.32-1.29,2.63-1.75,4.02-.25.74-.24,1.41.19,2.14,1.93,3.26,2.78,6.79,2.31,10.58-.07.6.14.9.61,1.21,1.73,1.15,3.56,2.12,5.46,2.96,1.17.51,1.53,1.23,1.14,2.15-.38.9-1.19,1.14-2.36.61-11.98-5.48-19.25-14.66-20.95-27.75-1.57-12.04,2.47-22.23,11.4-30.46.64-.59.65-.84,0-1.41-5.6-4.84-9.78-10.77-13.14-17.32-.41-.8-.33-1.54.36-2.13,7.25-6.2,15.2-11.07,24.79-12.66,7.73-1.28,14.56.93,20.67,5.67.25.2.5.4.75.6,1.3,1.05,1.53,1.81.82,2.65-.69.82-1.44.74-2.68-.28-1.5-1.23-3.08-2.32-4.79-3.24-3.1-1.66-6.38-2.66-9.92-2.71-.11.43.2.62.38.86,3.97,5.43,7.95,10.84,11.92,16.27.25.34.46.66.96.76,4.35.83,8.69,1.69,13.2,2.57-.84-1.67-1.78-3.07-2.75-4.46-.84-1.2-1.74-2.36-2.6-3.54-.65-.89-.61-1.68.12-2.26.72-.58,1.56-.45,2.23.38,2.45,3.04,4.6,6.29,6.43,9.74.22.41.43.8.84,1.08,2.62,1.77,4.97,3.85,7.13,6.16.09.1.22.16.37.28-.18-1.41-.4-2.75-.51-4.1-.53-6.61,1.76-12.06,6.84-16.31,4.27-3.58,9.23-5.79,14.56-7.25.9-.24,1.56,0,1.99.79,2.91,5.26,4.9,10.8,5.04,16.88.15,6.14-2.33,11.09-7.01,14.99-3.65,3.04-7.84,5.09-12.33,6.52-.84.27-.92.54-.61,1.32,10.32,25.37-5.44,53.92-32.37,58.67-23.37,4.12-45.77-11.52-49.96-34.9-.32-1.79-.48-3.6-.71-5.41,0-1.36,0-2.72,0-4.08ZM76.3,91.03c.01,2.75-.11,5.51.43,8.23.47,2.37,1.65,3.04,3.85,2.04,3.15-1.42,5.3-3.81,6.52-7.04.28-.74.41-1.51.28-2.31-.17-1.09-.31-2.19-.49-3.29-.86-5.27.83-9.41,5.37-12.34,1.26-.81,2.5-1.67,3.85-2.33.71-.34.78-.7.52-1.4-2.51-6.67-6.73-11.96-12.66-15.93-.77-.52-1.32-.5-2.09-.01-4.92,3.07-10.16,5.35-15.93,6.29-.45.07-.92.01-1.33.32-.98.72-2,1.38-2.96,2.12-2.02,1.53-3.76,3.31-4.53,5.82-1.32,4.31,1.51,8.21,5.98,8.21.93,0,1.86-.09,2.78-.2,1.81-.23,3.6-.56,5.41-.74,1.9-.2,3.13.56,3.95,2.28.31.65.5,1.33.64,2.04.52,2.73.4,5.48.41,8.23ZM56,59.67c11.85,2.33,21.13-3.1,30.34-9.66-.63-.14-.97-.22-1.32-.29-3.82-.75-7.64-1.47-11.46-2.25-.73-.15-1.27-.04-1.87.41-4.97,3.68-9.97,7.32-14.95,10.98-.25.18-.58.3-.74.82ZM45.32,106.97c-.03-2.68-.58-5.06-1.91-7.19-1-1.6-1.11-3.19-.54-4.91.52-1.56,1.26-3.03,1.97-4.51.65-1.35,1.32-2.69,1.74-4.14.34-1.17.13-1.63-.99-2.12-.75-.33-1.52-.63-2.32-.82-2.01-.49-3.43-1.68-4.38-3.48-.38-.73-.81-1.43-1.2-2.15-.53-.96-1.04-1.93-1.61-3-3.3,10.46-.11,24.27,9.24,32.32ZM68.32,46.62c-.17-.12-.23-.18-.29-.2-3.85-.76-7.7-1.52-11.54-2.27-.32-.06-.61-.03-.9.19-3.73,2.75-7.48,5.49-11.28,8.27,1.86,1.78,3.9,3.19,5.98,4.58,1.49,1,2.72,1.13,3.98-.25.28-.31.68-.51,1.03-.77,4.31-3.16,8.63-6.33,13.03-9.55ZM68.46,43.38c.03-.16.06-.21.04-.23-3.9-5.33-7.8-10.66-11.69-16-.32-.44-.68-.42-1.12-.35-2.36.41-4.65,1.07-6.89,1.92-.72.27-.63.52-.25,1.04,2.66,3.58,5.3,7.18,7.92,10.79.32.45.71.66,1.22.75,1.82.34,3.64.71,5.46,1.06,1.77.34,3.54.67,5.31,1ZM123.28,47.18c-.18.03-.28.02-.37.06-3.53,1.45-7.05,2.92-10.59,4.36-.5.2-.69.55-.87.99-1.27,3.07-2.56,6.12-3.83,9.19-.1.24-.34.48-.11.83,4.59-1.72,8.86-3.95,12.2-7.66,1.98-2.2,3.22-4.75,3.58-7.76ZM104.38,61.66c1.44-3.46,2.8-6.75,4.2-10.02.19-.45-.01-.76-.15-1.11-1.03-2.51-2.07-5.01-3.1-7.51-.47-1.13-.94-2.26-1.43-3.45-4.27,5-3.48,13.99.49,22.09ZM51.94,43.26c-5.92-1.15-11.59-2.26-17.47-3.4,2.16,3.78,4.53,7.08,7.24,10.14.42.48.68.28,1.06,0,1.69-1.26,3.4-2.49,5.1-3.74,1.29-.94,2.57-1.89,4.07-2.99ZM117.42,30.49c-3.91,1.39-7.3,3.14-10.35,5.55-.82.64-.93,1.18-.52,2.12,1.3,2.95,2.49,5.95,3.82,9.16,2.37-5.67,4.65-11.11,7.04-16.83ZM52.55,40.3c-2.37-3.23-4.6-6.24-6.78-9.28-.44-.61-.76-.61-1.38-.29-3.04,1.6-5.92,3.43-8.64,5.53-.2.15-.53.23-.52.67,5.69,1.11,11.39,2.22,17.32,3.37ZM113.41,47.89c3.37-1.39,6.46-2.67,9.56-3.94.35-.14.5-.34.47-.72-.32-4-1.48-7.76-3.24-11.56-2.27,5.43-4.47,10.69-6.79,16.23Z"></path>
  </g>
</svg>
