<?xml version="1.0" encoding="UTF-8"?>
<svg xmlns="http://www.w3.org/2000/svg" id="Layer_1" data-name="Layer 1" viewBox="0 0 150 150">
  <defs>
    <style>
      .cls-1 {
        fill: none;
        stroke: #564a41;
        stroke-miterlimit: 10;
      }

      .cls-2 {
        fill: #564a41;
        stroke-width: 0px;
      }
    </style>
  </defs>
  <circle class="cls-1" cx="75" cy="75" r="75"></circle>
  <g id="ss2xtC.tif">
    <g>
      <path class="cls-2" d="M22.41,74.36c.74-1.63,2.04-2.13,3.78-2.11,5.78.06,11.56.02,17.34.02,2.67,0,3.6.93,3.6,3.61,0,.33.02.66,0,.98-.03.52.2.71.71.7,2.73-.01,5.45-.01,8.18,0,.53,0,.69-.2.69-.71-.01-3.92,0-7.84,0-12.04-.63.56-1.1.98-1.57,1.39-1.36,1.18-2.81,1.12-4.04-.2-1.41-1.51-2.81-3.05-4.18-4.59-1.2-1.35-1.13-2.77.22-4.02,2.37-2.2,4.75-4.39,7.18-6.53.64-.56.85-1.14.84-1.97-.03-5.09-.02-10.18-.01-15.26,0-.69.09-1.28-.96-1.21-.71.05-1.11-.54-1.07-1.24.04-.71.47-1.13,1.21-1.13,4.98,0,9.96,0,14.94,0,.72,0,1.16.44,1.18,1.16.02.73-.41,1.24-1.11,1.22-.85-.02-.92.37-.9,1.05.04,1.4.01,2.8.01,4.46,2.02-1.84,3.84-3.49,5.65-5.14,2.93-2.67,5.85-5.34,8.77-8.02.54-.49,1.1-.94,1.76-1.26h1.31c.68.35,1.27.83,1.83,1.34,11.74,10.72,23.48,21.43,35.22,32.14.65.59,1.3,1.16,1.42,2.12.11.89-.16,1.64-.76,2.3-1.4,1.53-2.78,3.08-4.2,4.59-1.27,1.36-2.72,1.39-4.12.15-.43-.38-.85-.77-1.26-1.13-.34.16-.24.41-.24.6,0,3.71,0,7.42-.02,11.13,0,.69.16.92.9.91,3.48-.06,6.26,1.36,8.37,4.1,1.22,1.58,2.44,3.17,3.63,4.78,1.42,1.92,1.16,3.87-.74,5.35-14.36,11.14-28.73,22.28-43.09,33.42-1.72,1.34-3.51,1.51-5.51.65-9.63-4.16-19.28-8.29-28.92-12.42q-1.3-.56-1.3.85c0,.91.03,1.82-.03,2.73-.09,1.51-1.17,2.62-2.67,2.63-6.44.03-12.87.02-19.31,0-1.43,0-2.19-.97-2.71-2.17v-43.2ZM47.12,95.15c0,4.73.02,9.45-.02,14.18,0,.74.24,1.07.91,1.36,10.11,4.31,20.22,8.65,30.31,13.01,1.17.51,2.13.38,3.12-.41,2.71-2.14,5.45-4.24,8.18-6.35,11.52-8.93,23.04-17.86,34.55-26.78,1.16-.9,1.2-1.24.32-2.41-1.14-1.51-2.26-3.03-3.43-4.51-2.75-3.49-7.14-4.11-10.76-1.55-2.46,1.74-4.93,3.47-7.36,5.26-6.31,4.64-12.98,8.79-18.46,14.54-2.9,3.05-7.6,3.07-11,.55-2.04-1.51-4-3.15-6-4.71-.7-.55-1.2-1.19-.55-2.01.65-.83,1.4-.47,2.09.08,1.82,1.45,3.64,2.9,5.47,4.33,2.9,2.28,6.23,2.11,8.86-.45,1.46-1.42,2.87-2.89,4.35-4.28.77-.72.75-1.23.03-1.98-3.85-4.02-7.66-8.07-11.46-12.13-.57-.6-1.18-.87-2.01-.86-8.69.02-17.38.02-26.07,0-.85,0-1.1.22-1.1,1.08.04,4.69.02,9.38.02,14.07ZM96.1,88.74c.53-.35.85-.56,1.17-.79,3.75-2.68,7.5-5.38,11.26-8.05.62-.44,1.26-.87,1.95-1.18.62-.28.84-.63.84-1.32-.03-4.69-.02-9.38,0-14.07,0-.6-.19-1.01-.63-1.41-8.29-7.53-16.56-15.06-24.83-22.61-.46-.42-.72-.5-1.23-.03-8.25,7.56-16.53,15.1-24.81,22.63-.51.46-.68.95-.67,1.61.02,4.29.04,8.58,0,12.87,0,.89.22,1.18,1.15,1.17,4.32-.05,8.65-.04,12.98,0,.86,0,1.17-.21,1.29-1.1.6-4.2,2.9-7.17,6.85-8.68,4-1.53,7.73-.81,10.99,1.97,2.62,2.25,3.72,5.21,3.71,8.62,0,3.38,0,6.75,0,10.37ZM44.67,96.07c0-6.73-.02-13.45.02-20.18,0-.92-.27-1.16-1.17-1.15-5.82.04-11.64.04-17.45,0-.98,0-1.22.29-1.22,1.24.03,13.38.03,26.76,0,40.14,0,.97.29,1.23,1.24,1.23,5.78-.04,11.56-.05,17.34,0,1.06,0,1.26-.35,1.25-1.31-.04-6.65-.02-13.31-.02-19.96ZM53.17,64.59c.28-.24.54-.44.77-.65,9.7-8.84,19.4-17.68,29.1-26.52,1.63-1.48,2.75-1.5,4.37-.02,2.51,2.27,5.01,4.55,7.5,6.82,7.2,6.56,14.41,13.12,21.58,19.71.69.64,1.03.58,1.6-.1,1-1.2,2.04-2.38,3.16-3.46.7-.68.63-1.04-.07-1.68-11.7-10.64-23.39-21.29-35.05-31.98-.76-.7-1.16-.57-1.84.06-5.62,5.17-11.27,10.31-16.91,15.45-6.02,5.49-12.02,10.99-18.07,16.44-.76.69-.73,1.08-.05,1.77,1.16,1.16,2.22,2.41,3.32,3.61.17.18.35.34.57.55ZM93.6,83.47s-.03,0-.04,0c0-2.14.1-4.29-.02-6.43-.24-4.3-4.14-7.65-8.62-7.51-4.33.13-7.96,3.73-8.03,7.94,0,.38.08.66.36.96,4,4.17,7.98,8.37,11.96,12.55.51.54.99,1.49,1.53,1.52.6.03,1.22-.81,1.88-1.18.79-.45,1.04-1.04,1.01-1.95-.08-1.96-.02-3.93-.02-5.89ZM57.55,47.59c.18-.02.26,0,.3-.04,2.58-2.34,5.15-4.68,7.74-7.02.31-.28.34-.61.34-.98,0-2.07-.03-4.14.01-6.2.02-.76-.3-.89-.96-.88-2.18.03-4.35.04-6.53,0-.71-.01-.92.19-.92.91.03,3.59.02,7.18.02,10.77,0,1.15,0,2.29,0,3.45Z"></path>
      <path class="cls-2" d="M102.86,30.45c.43-.01.75.22,1.05.49,3.99,3.64,7.99,7.29,11.98,10.92.64.58.97,1.26.33,1.98-.65.73-1.34.45-1.99-.14-3.99-3.65-7.98-7.29-11.98-10.93-.49-.45-.83-.93-.52-1.62.21-.47.6-.72,1.12-.71Z"></path>
      <path class="cls-2" d="M98.51,28.83c-.83,0-2.2-1.27-2.2-2.02,0-.78.45-1.21,1.2-1.26.73-.05,2.14,1.31,2.15,2.04,0,.79-.45,1.18-1.15,1.25Z"></path>
      <path class="cls-2" d="M37.69,65.86c1.45,0,2.9,0,4.35,0,.85,0,1.47.36,1.46,1.24,0,.89-.63,1.22-1.48,1.21-2.94-.01-5.88,0-8.82,0-.84,0-1.46-.29-1.45-1.22.01-.92.63-1.23,1.46-1.23,1.49,0,2.98,0,4.46,0Z"></path>
      <path class="cls-2" d="M28.34,68.31c-.85.03-1.58-.17-1.59-1.19,0-.99.67-1.26,1.54-1.26,1.08,0,1.7.46,1.68,1.26-.02.76-.6,1.19-1.63,1.19Z"></path>
      <path class="cls-2" d="M107.6,97.85c0,.48-.28.84-.67,1.14-3.28,2.58-6.56,5.15-9.83,7.74-.66.52-1.35.66-1.92-.03-.63-.76-.25-1.4.43-1.94,3.25-2.55,6.5-5.11,9.74-7.67.48-.38.97-.65,1.59-.33.43.22.62.59.65,1.09Z"></path>
      <path class="cls-2" d="M110.74,95.54c-.65-.07-1.09-.47-1.08-1.26,0-.73,1.25-1.84,2.03-1.81.79.02,1.19.5,1.22,1.25.02.71-1.28,1.82-2.17,1.82Z"></path>
      <path class="cls-2" d="M85.29,47.72c3.93.02,7.13,3.23,7.14,7.15,0,3.95-3.29,7.22-7.24,7.18-3.93-.04-7.13-3.25-7.13-7.17,0-3.97,3.24-7.17,7.23-7.16ZM85.23,59.56c2.62,0,4.71-2.07,4.71-4.68,0-2.59-2.11-4.72-4.7-4.72-2.57,0-4.72,2.13-4.73,4.7,0,2.59,2.1,4.69,4.71,4.7Z"></path>
      <path class="cls-2" d="M35.45,110.15c-.36,0-.73.02-1.09,0-.77-.06-1.23-.51-1.2-1.27.02-.7.46-1.13,1.2-1.15.73-.02,1.45-.02,2.18,0,.72.02,1.17.41,1.19,1.14.03.79-.42,1.2-1.18,1.27-.36.03-.73,0-1.09,0Z"></path>
    </g>
  </g>
</svg>
