<?xml version="1.0" encoding="UTF-8"?>
<svg xmlns="http://www.w3.org/2000/svg" id="Layer_1" data-name="Layer 1" viewBox="0 0 150 150">
  <defs>
    <style>
      .cls-1 {
        fill: none;
        stroke: #564a41;
        stroke-miterlimit: 10;
      }

      .cls-2 {
        fill: #564a41;
        stroke-width: 0px;
      }
    </style>
  </defs>
  <circle class="cls-1" cx="75" cy="75" r="75"></circle>
  <g id="H6CEH4.tif">
    <g>
      <path class="cls-2" d="M100.89,58c.31-.69.6-1.33.88-1.97.75-1.71,1.5-3.43,2.26-5.14,1.11-2.49,3.77-3.53,6.27-2.46,1.87.8,3.74,1.62,5.6,2.47,2.42,1.1,3.45,3.8,2.39,6.22-4.49,10.21-8.99,20.42-13.49,30.62-1.28,2.9-2.54,5.8-3.83,8.69-.12.27-.16.53-.16.82,0,6.07-.06,12.15.03,18.22.05,3.37-2.54,5.89-5.58,6.34-.41.06-.82.09-1.24.09-18.64,0-37.28,0-55.91,0-2.09,0-3.9-.71-5.32-2.28-1-1.1-1.48-2.42-1.48-3.91,0-13.56,0-27.12,0-40.68,0-9.41.03-18.82-.02-28.23-.02-3.67,2.89-6.06,5.9-6.37.78-.08,1.56-.05,2.34-.06,3.92,0,7.83,0,11.75,0,.47,0,.66-.07.64-.61-.04-1.61-.02-3.22-.01-4.83,0-.92.46-1.38,1.37-1.38,2.07,0,4.15,0,6.22,0,.35,0,.47-.09.54-.44.62-3.05,3.11-5.08,6.15-5.04,2.92.03,5.38,2.15,5.92,5.13.06.33.21.35.47.34,2.07,0,4.15,0,6.22,0,.99,0,1.43.43,1.43,1.42,0,1.58,0,3.15,0,4.73q0,.65.63.65c4.36,0,8.73,0,13.09,0,1.73,0,3.31.47,4.66,1.59,1.43,1.19,2.2,2.7,2.2,4.59,0,3.63,0,7.27,0,10.9,0,.16-.05.32.08.54ZM98.36,99.66c-.2.15-.4.3-.59.45-2.87,2.2-5.73,4.41-8.6,6.61-.91.7-1.88.28-2.03-.85-.02-.18-.04-.36-.06-.54-.33-3.78-.65-7.57-.98-11.35-.1-1.14-.1-2.21.4-3.33,3.96-8.85,7.84-17.74,11.75-26.61.11-.24.19-.48.19-.76,0-5.59,0-11.19,0-16.78,0-.99-.38-1.8-1.08-2.48-.88-.85-1.96-1.24-3.16-1.25-4.51-.02-9.03,0-13.54-.02-.35,0-.42.13-.41.44.01.76,0,1.53,0,2.29,0,1.06-.43,1.49-1.48,1.49-8.41,0-16.83,0-25.24,0-.13,0-.27,0-.4,0-.77-.05-1.21-.51-1.22-1.29,0-.83-.01-1.66,0-2.49,0-.31-.07-.43-.41-.43-4.5.01-9,0-13.49.01-2.1,0-4.38,1.37-4.35,4.42.1,9.54.04,19.09.04,28.63,0,13.24,0,26.49,0,39.73,0,1.62.76,2.74,2.16,3.47.75.39,1.57.51,2.41.51,16.32,0,32.63,0,48.95,0,2.36,0,4.71,0,7.07,0,1.9,0,4.26-1.38,4.2-4.2-.11-5.03-.03-10.06-.03-15.09,0-.17.05-.36-.08-.57ZM98.54,95.9c.14-.09.17-.26.24-.4.9-2.03,1.79-4.06,2.69-6.1,3.9-8.84,7.79-17.68,11.69-26.52.13-.3.17-.47-.2-.63-3.04-1.32-6.07-2.66-9.1-4-.34-.15-.45-.05-.58.25-.36.87-.76,1.73-1.14,2.59-4.41,10.01-8.82,20.02-13.23,30.02-.12.27-.24.45.17.63,3.06,1.32,6.1,2.68,9.15,4.02.09.04.18.08.31.13ZM66.05,44.58c3.77,0,7.53,0,11.3,0,.36,0,.53-.06.52-.48-.02-2.57-.02-5.14,0-7.72,0-.34-.09-.45-.44-.45-2.01.02-4.02,0-6.02,0-1.23,0-1.59-.37-1.58-1.61.04-2.18-1.69-3.91-3.86-3.87-2.1.04-3.74,1.83-3.63,3.98.05,1-.41,1.49-1.4,1.49-2.04,0-4.08.01-6.12,0-.4,0-.53.09-.53.51.02,2.54.02,5.08,0,7.62,0,.41.11.53.52.52,3.75-.02,7.5,0,11.25,0ZM108.37,50.39c-.98.05-1.71.48-2.12,1.39-.57,1.25-1.1,2.52-1.67,3.77-.14.31-.07.42.22.54,3.04,1.33,6.07,2.66,9.1,4.01.31.14.44.12.58-.21.51-1.22,1.07-2.43,1.59-3.64.59-1.37.1-2.63-1.27-3.24-1.79-.79-3.58-1.58-5.37-2.36-.34-.15-.68-.26-1.06-.25ZM89.32,103.6c2.56-1.97,5.03-3.87,7.57-5.82-2.82-1.24-5.56-2.45-8.38-3.69.27,3.2.54,6.3.81,9.5Z"></path>
      <path class="cls-2" d="M38.54,60.48c0-2.46.05-4.91-.02-7.36-.04-1.65,1.17-2.67,2.66-2.66,4.93.05,9.85.02,14.78.02,1.68,0,2.62.94,2.62,2.62,0,4.94,0,9.89,0,14.83,0,1.64-.95,2.59-2.6,2.59-4.96,0-9.92,0-14.88,0-1.59,0-2.55-.94-2.55-2.52,0-2.5,0-5.01,0-7.51h0ZM56.2,60.56h0c0-2.39-.01-4.78.01-7.17,0-.45-.13-.54-.56-.54-4.75.02-9.49.02-14.24.01-.39,0-.5.1-.5.5.01,4.76.01,9.52,0,14.29,0,.37.08.51.49.51,4.78-.02,9.56-.02,14.34,0,.37,0,.47-.09.47-.47-.02-2.37,0-4.75,0-7.12Z"></path>
      <path class="cls-2" d="M38.54,105.95c0-2.47,0-4.94,0-7.42,0-1.63.93-2.58,2.56-2.58,4.98,0,9.95,0,14.93,0,1.6,0,2.55.98,2.55,2.59,0,4.96,0,9.92,0,14.88,0,1.6-.97,2.58-2.56,2.58-4.98,0-9.95,0-14.93,0-1.57,0-2.54-.97-2.54-2.55,0-2.5,0-5.01,0-7.51ZM56.2,106.02h0c0-2.41,0-4.81,0-7.22,0-.36-.07-.48-.46-.48-4.78.02-9.56.02-14.33.01-.41,0-.49.14-.49.51.01,4.78.01,9.56,0,14.33,0,.37.1.47.47.47,4.78-.01,9.56-.02,14.34,0,.41,0,.49-.13.49-.51-.02-2.37,0-4.75,0-7.12Z"></path>
      <path class="cls-2" d="M38.54,83.25c0-2.49,0-4.98,0-7.47,0-1.61.96-2.57,2.56-2.57,4.98,0,9.95,0,14.93,0,1.57,0,2.54.98,2.54,2.55,0,4.99,0,9.99,0,14.98,0,1.52-.96,2.51-2.47,2.51-5.04,0-10.09,0-15.13,0-1.46,0-2.43-.97-2.43-2.44,0-2.52,0-5.04,0-7.56ZM48.62,75.59h0c-2.41,0-4.81.01-7.22,0-.4,0-.49.11-.49.5.01,4.76.01,9.52,0,14.28,0,.4.09.54.52.54,4.76-.02,9.52-.02,14.28-.01.39,0,.5-.11.5-.5-.01-4.78-.02-9.55,0-14.33,0-.36-.08-.48-.46-.47-2.37.02-4.74,0-7.12,0Z"></path>
      <path class="cls-2" d="M80.41,58.57c-3.97,0-7.93,0-11.9,0-.93,0-1.5-.69-1.27-1.52.14-.5.57-.83,1.15-.85.43-.02.86-.01,1.29-.01,7.45,0,14.9,0,22.35,0,.12,0,.23,0,.35,0,.71.04,1.22.54,1.23,1.19,0,.67-.53,1.19-1.26,1.19-2.67,0-5.34,0-8.01,0-1.31,0-2.62,0-3.93,0Z"></path>
      <path class="cls-2" d="M80.44,62.42c3.88,0,7.76,0,11.65,0,.23,0,.47,0,.69.05.48.12.84.63.84,1.12,0,.52-.36,1.02-.87,1.14-.22.05-.46.06-.69.06-7.76,0-15.53,0-23.29,0-.1,0-.2,0-.3,0-.77-.04-1.3-.55-1.28-1.24.03-.68.54-1.14,1.31-1.14,3.98,0,7.96,0,11.94,0Z"></path>
      <path class="cls-2" d="M77.87,78.95c3.04,0,6.07,0,9.11,0,.18,0,.37,0,.55.02.57.07,1,.53,1.03,1.1.03.57-.34,1.08-.9,1.21-.19.04-.39.05-.59.05-6.12,0-12.24,0-18.36,0-.21,0-.43-.01-.64-.06-.53-.13-.89-.65-.86-1.19.03-.57.46-1.04,1.03-1.11.2-.02.4-.02.6-.02,3.02,0,6.04,0,9.06,0Z"></path>
      <path class="cls-2" d="M76.24,110.27c-2.57,0-5.14,0-7.71,0-.57,0-1.01-.2-1.24-.73-.28-.65.08-1.37.76-1.59.24-.08.49-.07.74-.07,4.99,0,9.99,0,14.98,0,.1,0,.2,0,.3,0,.73.04,1.27.55,1.26,1.21,0,.67-.53,1.17-1.28,1.17-2.6,0-5.21,0-7.81,0Z"></path>
      <path class="cls-2" d="M76.01,101.69c2.49,0,4.97,0,7.46,0,.99,0,1.59.91,1.15,1.73-.26.49-.7.65-1.25.65-3.51,0-7.03,0-10.54,0-1.48,0-2.95,0-4.43,0-.65,0-1.12-.43-1.2-1.04-.08-.58.28-1.14.86-1.29.19-.05.39-.05.59-.05,2.45,0,4.91,0,7.36,0Z"></path>
      <path class="cls-2" d="M75.21,87.54c-2.22,0-4.45,0-6.67,0-.69,0-1.14-.31-1.3-.86-.21-.76.32-1.49,1.13-1.51.81-.02,1.63,0,2.44,0,3.72,0,7.44,0,11.15,0,.97,0,1.58.87,1.19,1.68-.24.5-.67.7-1.22.7-2.24,0-4.48,0-6.72,0Z"></path>
      <path class="cls-2" d="M95.48,90.76c-.92,0-1.42-.88-1.02-1.79.86-1.97,1.73-3.94,2.6-5.91,2.74-6.23,5.49-12.46,8.23-18.69.04-.09.08-.18.12-.27.33-.72.97-1.01,1.61-.73.64.28.88.95.57,1.67-.49,1.14-1,2.28-1.5,3.41-3.13,7.11-6.26,14.22-9.39,21.33-.24.55-.56.98-1.23.98Z"></path>
      <path class="cls-2" d="M54.12,57.75c0,.21-.14.5-.38.75-1.9,1.9-3.8,3.81-5.71,5.7-.53.52-1.19.51-1.73,0-1-.98-1.98-1.96-2.96-2.96-.5-.52-.5-1.22-.03-1.69.48-.48,1.17-.49,1.69.01.62.6,1.24,1.2,1.83,1.83.25.27.39.28.66,0,1.49-1.52,2.99-3.01,4.5-4.51.46-.45.96-.57,1.44-.34.44.22.67.57.68,1.21Z"></path>
      <path class="cls-2" d="M47.18,110.06c-.35,0-.64-.14-.89-.39-.97-.97-1.95-1.94-2.92-2.92-.53-.54-.54-1.24-.05-1.73.48-.48,1.19-.47,1.73.05.58.56,1.17,1.13,1.72,1.73.29.31.46.36.79.02,1.45-1.5,2.95-2.96,4.42-4.44.32-.32.68-.54,1.15-.45.46.09.79.36.93.8.15.48.03.91-.34,1.27-1.49,1.48-2.98,2.97-4.47,4.46-.4.4-.8.8-1.2,1.19-.24.24-.53.39-.88.4Z"></path>
      <path class="cls-2" d="M54.12,80.34c.02.35-.12.65-.37.89-1.9,1.9-3.8,3.81-5.7,5.7-.55.55-1.2.53-1.76-.02-.98-.96-1.96-1.94-2.92-2.92-.52-.54-.52-1.25-.02-1.73.48-.45,1.18-.44,1.7.06.62.6,1.23,1.21,1.83,1.83.24.26.38.24.62,0,1.5-1.52,3.02-3.04,4.54-4.54.64-.63,1.53-.55,1.95.17.1.18.15.37.15.57Z"></path>
    </g>
  </g>
</svg>
