<?xml version="1.0" encoding="UTF-8"?>
<svg xmlns="http://www.w3.org/2000/svg" id="Layer_1" data-name="Layer 1" viewBox="0 0 150 150">
  <defs>
    <style>
      .cls-1 {
        fill: none;
        stroke: #564a41;
        stroke-miterlimit: 10;
      }

      .cls-2 {
        fill: #564a41;
        stroke-width: 0px;
      }
    </style>
  </defs>
  <circle class="cls-1" cx="75" cy="75" r="75"></circle>
  <g id="c4YzvE.tif">
    <g>
      <path class="cls-2" d="M77.08,26.39c.23.35.64.38.97.52,2.99,1.26,5.74,2.92,8.32,4.88.8.61,1.08,1.28.83,2.29-.55,2.24-.98,4.5-1.51,6.75-.17.72-.03,1.22.45,1.79,1.95,2.31,3.45,4.9,4.57,7.71.45,1.13.21,1.96-.67,2.33-.87.38-1.68-.03-2.13-1.14-1.19-2.97-2.82-5.65-5-7.99-.62-.67-.63-1.39-.45-2.2.5-2.25.97-4.51,1.5-6.75.12-.52.03-.79-.4-1.09-1.91-1.35-3.93-2.53-6.05-3.52-.52-.24-.84-.16-1.25.21-1.66,1.56-3.37,3.06-5.02,4.63-.68.65-1.38.9-2.31.69-3.57-.78-7.15-.79-10.72,0-.93.2-1.63-.04-2.31-.69-1.63-1.55-3.33-3.01-4.95-4.56-.51-.49-.91-.5-1.49-.22-1.94.94-3.8,2-5.58,3.2-.67.45-.88.89-.67,1.71.55,2.17.97,4.38,1.51,6.55.19.79.06,1.41-.47,2-2.54,2.8-4.4,6-5.56,9.6-.25.77-.74,1.18-1.5,1.41-2.24.68-4.45,1.42-6.69,2.09-.61.18-.82.47-.87,1.12-.2,2.28-.2,4.54.01,6.82.05.56.23.81.78.98,2.21.66,4.39,1.4,6.6,2.06.9.27,1.46.76,1.74,1.67,1.09,3.45,2.85,6.54,5.27,9.22.69.76.86,1.53.61,2.51-.53,2.11-.96,4.25-1.47,6.37-.16.66-.07,1.08.54,1.49,1.86,1.27,3.8,2.38,5.82,3.35.58.28.94.18,1.4-.25,1.67-1.59,3.4-3.12,5.09-4.69.6-.56,1.22-.76,2.07-.58,3.44.7,6.89.87,10.35.13,1.11-.24,1.87.2,2.07,1.11.21.95-.35,1.64-1.51,1.88-3.45.72-6.91.67-10.36.07-.6-.1-1,.03-1.44.43-1.73,1.62-3.51,3.19-5.23,4.82-.71.67-1.4.8-2.32.42-3.23-1.34-6.23-3.07-8.99-5.2-.71-.55-.98-1.16-.78-2.05.55-2.4,1.03-4.82,1.58-7.22.11-.48.06-.82-.26-1.2-2.23-2.63-3.92-5.57-5.08-8.82-.17-.47-.43-.69-.9-.84-2.27-.69-4.51-1.44-6.78-2.11-1.04-.31-1.59-.86-1.68-1.98-.07-.77-.04-1.58-.32-2.33,0-1.77,0-3.54,0-5.31.12-.8.3-1.61.34-2.41.06-1.13.64-1.67,1.68-1.97,2.24-.66,4.45-1.4,6.68-2.09.48-.15.8-.36.99-.88,1.15-3.25,2.87-6.17,5.09-8.8.29-.34.39-.64.28-1.1-.44-1.87-.81-3.76-1.23-5.64-.69-3.13-.93-2.73,1.87-4.78,2.48-1.82,5.24-3.14,8.03-4.39h.95c2.16,1.75,4.12,3.73,6.19,5.58.38.34.71.48,1.25.37,3.33-.61,6.67-.61,10,0,.58.1.94-.02,1.34-.4,2.01-1.87,4.05-3.7,6.08-5.55.38,0,.76,0,1.14,0Z"></path>
      <path class="cls-2" d="M88.77,89.84c.21-2,.52-4,.62-6.01.38-7.83.94-15.66,1.58-23.47.16-1.89.32-3.78.7-5.64.13-.63.44-1.1.94-1.47.94-.7,1.99-1.09,3.15-1.19,2.03-.17,3.71,1.08,4.11,3.13.48,2.43.44,4.91.51,7.37.06,2.15.06,4.3.02,6.45-.01.74.11.98.92.78,1.18-.29,2.39-.19,3.56.15,1.14.34,2.14.98,2.61,2.05.46,1.05,1.12,1.31,2.18,1.45,3.35.44,5.16,2.24,5.92,5.84.22,1.04.57,1.53,1.71,1.78,3.22.7,5.1,3.14,5.32,6.75.35,5.55.61,11.11.93,16.67.36,6.35-1.38,12.25-3.76,18.03-.4.97-1.22,1.32-2.06.97-.8-.34-1.11-1.19-.72-2.16.74-1.85,1.4-3.72,2.01-5.62,1.27-3.9,1.72-7.89,1.49-11.97-.3-5.21-.58-10.42-.91-15.63-.11-1.7-.57-3.24-2.35-4.01-.72-.31-.94-.18-.84.63.25,1.99.09,3.98-.2,5.95-.16,1.09-.84,1.68-1.75,1.57-.9-.11-1.43-.88-1.27-1.98.53-3.62.14-7.18-.61-10.73-.38-1.79-1.4-2.83-3.18-3.18-.7-.14-1.01,0-.98.83.1,3.76.13,7.53.18,11.29,0,.28.03.58-.02.85-.16.82-.66,1.3-1.51,1.29-.85,0-1.34-.5-1.48-1.32-.05-.28-.02-.57-.02-.85-.06-4.43-.12-8.86-.19-13.28-.01-.96-.21-1.88-1.21-2.27-1.11-.43-2.24-.4-3.28.24-.49.3-.5.84-.51,1.36-.1,3.64-.19,7.27-.3,10.91-.05,1.71-.11,3.41-.18,5.12-.04,1.11-.66,1.78-1.57,1.73-.91-.04-1.48-.75-1.45-1.86.13-5.03.3-10.05.42-15.08.13-5.82.24-11.64-.07-17.46-.03-.57-.09-1.14-.19-1.7-.1-.59-.29-1.18-1.05-1.07-.66.1-1.37.13-1.48,1.12-.38,3.17-.65,6.35-.88,9.54-.47,6.78-.83,13.57-1.38,20.35-.31,3.81-.89,7.6-1.36,11.39-.02.19-.06.38-.11.56-.21.85-.94,1.36-1.75,1.23-.77-.12-1.47-.84-1.25-1.63.55-1.92.02-3.45-1.26-4.88-.4-.45-.61-1.1-.83-1.69-1.24-3.4-3.8-5.41-7.02-6.76-.17-.07-.36-.14-.54-.16-.81-.11-1.7-.31-2.3.44-.6.75.1,1.37.39,1.98.44.95,1.1,1.77,1.74,2.6,2.06,2.7,3.54,5.69,4.37,8.97.8,3.15,2.03,6.1,3.6,8.93,1.14,2.04,2.26,4.11,3.05,6.31.86,2.41,2.44,4.17,4.42,5.66.71.53,1.45,1.01,2.18,1.52.85.59,1.06,1.45.55,2.2-.48.71-1.34.86-2.18.34-1.78-1.11-3.44-2.36-4.9-3.87-.98-1.01-1.75-2.14-2.29-3.45-1.01-2.46-2.15-4.86-3.45-7.17-1.76-3.1-3.03-6.38-3.9-9.83-.72-2.86-2.05-5.42-3.82-7.77-.7-.93-1.36-1.91-1.97-2.9-1.07-1.72-1.55-3.52-.2-5.3,1.38-1.8,3.34-2.15,5.39-1.57,4.21,1.2,7.4,3.73,9.35,7.71.15.31.28.62.42.94.07-.01.14-.03.21-.04Z"></path>
      <path class="cls-2" d="M63.54,79.83c-10.62-.11-18.83-8.53-18.71-19.17.11-10.14,8.7-18.41,19.02-18.31,10.25.1,18.56,8.67,18.42,18.99-.14,10.26-8.59,18.6-18.72,18.49ZM63.55,76.79c8.51.07,15.57-6.91,15.67-15.49.11-8.67-6.84-15.82-15.45-15.91-8.67-.09-15.86,6.88-15.92,15.45-.07,8.84,6.85,15.88,15.7,15.95Z"></path>
      <path class="cls-2" d="M87.75,76.11c0,.65-.27,1.13-.5,1.61-.58,1.24-1.36,2.36-2.38,3.28-.65.58-1.47.55-2.05-.02-.56-.54-.65-1.44-.09-2.05.93-1.01,1.63-2.15,2.19-3.41.31-.7.95-1,1.73-.78.73.2,1.08.72,1.1,1.37Z"></path>
    </g>
  </g>
</svg>
